<?xml version="1.0" encoding="UTF-8"?>
<svg version="1.1" xmlns="http://www.w3.org/2000/svg" width="365" height="241">
<path d="M0 0 C1.24523437 -0.00386719 2.49046875 -0.00773437 3.7734375 -0.01171875 C9.63864332 -0.00546587 15.21830429 0.17155414 21 1.125 C22.79170071 1.14266465 24.58427973 1.12434169 26.375 1.0625 C30.82467455 1.007641 34.64769728 1.58537149 38.94140625 2.6875 C41.25039558 3.25276017 41.25039558 3.25276017 44.6875 3.125 C48.23505896 3.125 50.67505276 3.96849661 54 5.125 C54.804375 5.104375 55.60875 5.08375 56.4375 5.0625 C60.03146705 5.15015773 62.7148373 6.7089816 66 8.125 C68.32817964 8.49260731 70.6618385 8.82741581 73 9.125 C75.97109353 10.00282309 78.84597859 11.06789831 81.75 12.14453125 C82.74 12.50933594 83.73 12.87414063 84.75 13.25 C85.69359375 13.60320313 86.6371875 13.95640625 87.609375 14.3203125 C89.89551311 15.23133797 89.89551311 15.23133797 92 15.125 C92 15.785 92 16.445 92 17.125 C92.78375 17.08375 93.5675 17.0425 94.375 17 C97 17.125 97 17.125 99 19.125 C101.06874034 19.7675235 101.06874034 19.7675235 103 20.125 C103 20.785 103 21.445 103 22.125 C103.556875 22.24875 104.11375 22.3725 104.6875 22.5 C113.56013306 24.89800894 120.88603378 30.4913967 128 36.125 C128.74121094 36.70636719 129.48242188 37.28773437 130.24609375 37.88671875 C130.96925781 38.48097656 131.69242187 39.07523438 132.4375 39.6875 C133.09621094 40.22503906 133.75492187 40.76257813 134.43359375 41.31640625 C136.35295763 43.53252963 136.65126494 45.25161955 137 48.125 C133.1080299 47.15200747 129.68186436 46.05163976 126.125 44.1875 C121.8922471 41.98089044 117.54789265 40.53933533 113 39.125 C107 37.125 107 37.125 101 35.125 C100.27296875 34.88652344 99.5459375 34.64804688 98.796875 34.40234375 C92.34664117 32.27718393 92.34664117 32.27718393 89.4375 31 C86.02002012 29.77321235 82.59418614 29.51615373 79 29.125 C75.68446287 28.61491736 72.71325521 27.6810181 69.5625 26.5625 C65.87350469 25.29001074 62.91519171 25.03601837 59 25.125 C58.21625 24.795 57.4325 24.465 56.625 24.125 C53.54393266 22.95126006 51.18090187 23.03136511 47.92578125 23.1171875 C44.3901845 23.13153069 41.32857999 22.23452666 38 21.125 C34.47783818 21.05576832 30.96746488 21.12767576 27.4453125 21.1875 C24 21.125 24 21.125 21.75097656 20.62939453 C18.3100777 19.998502 15.03753562 19.99519565 11.5390625 19.9921875 C10.47587296 19.99075241 10.47587296 19.99075241 9.39120483 19.98928833 C7.89687002 19.98861024 6.40253221 19.9904386 4.90820312 19.99462891 C2.63925438 19.99996647 0.37050501 19.99467957 -1.8984375 19.98828125 C-3.35677126 19.98894241 -4.81510491 19.99022435 -6.2734375 19.9921875 C-7.58747559 19.99331543 -8.90151367 19.99444336 -10.25537109 19.99560547 C-13.90823144 20.12182896 -17.38895554 20.58456054 -21 21.125 C-22.27875 21.104375 -23.5575 21.08375 -24.875 21.0625 C-28.6551102 21.00434446 -31.96835117 21.71572199 -35.625 22.6171875 C-39.0064963 23.3402048 -42.39249481 23.61108293 -45.8359375 23.87890625 C-48.17929747 24.06975983 -48.17929747 24.06975983 -51 25.125 C-52.98167431 25.35240525 -54.96336999 25.57963176 -56.9453125 25.8046875 C-59.22450502 26.10165692 -59.22450502 26.10165692 -62.1875 27.1875 C-65.02931322 28.13477107 -67.04191897 28.125 -70 28.125 C-71.68076231 28.75528587 -73.34795544 29.42288106 -75 30.125 C-76.65919896 30.49371088 -78.32774271 30.82095322 -80 31.125 C-85.24784038 32.15240829 -90.18215314 33.4407148 -95.16015625 35.40234375 C-97.7395672 36.41548818 -100.36582898 37.26603119 -103 38.125 C-104.485 38.62 -104.485 38.62 -106 39.125 C-107.99383816 39.78961272 -109.99397901 40.43561844 -112 41.0625 C-115.02391025 42.05934094 -115.02391025 42.05934094 -117.8125 43.5625 C-121.76128846 45.49818062 -125.8105695 46.81231178 -130 48.125 C-130 47.135 -130 46.145 -130 45.125 C-129.34 45.125 -128.68 45.125 -128 45.125 C-128 44.465 -128 43.805 -128 43.125 C-127.34 43.125 -126.68 43.125 -126 43.125 C-126 42.465 -126 41.805 -126 41.125 C-123.74004714 38.41305657 -121.36876271 36.68534652 -118.3125 35 C-114.95938281 33.50883627 -114.95938281 33.50883627 -114 31.125 C-111.69012695 29.71899032 -109.37639586 28.41100056 -107 27.125 C-106.10925781 26.63386719 -105.21851562 26.14273438 -104.30078125 25.63671875 C-94.60791506 20.30762588 -84.9371358 15.71269687 -74.5 12.0625 C-73.77941406 11.80662109 -73.05882812 11.55074219 -72.31640625 11.28710938 C-67.9126788 9.73823959 -63.49515735 8.38230886 -59 7.125 C-58.01 6.774375 -57.02 6.42375 -56 6.0625 C-52.67732834 5.02416511 -49.44619696 4.58015809 -46 4.125 C-45.01 3.795 -44.02 3.465 -43 3.125 C-41.35757182 2.92757958 -39.71091615 2.76381399 -38.0625 2.625 C-35.60903302 2.417769 -33.30847157 2.20385739 -30.921875 1.59375 C-28.37125897 0.97164853 -25.90260973 1.10140875 -23.29296875 1.1875 C-20.88898314 1.1759574 -20.88898314 1.1759574 -18.11328125 0.6328125 C-12.12603276 -0.27291586 -6.03884588 -0.01875418 0 0 Z " fill="#EF9125" transform="translate(180,31.875)"/>
<path d="M0 0 C3.05037183 3.53200949 4.28220365 6.45395643 5 11 C5.31710938 11.61230469 5.63421875 12.22460938 5.9609375 12.85546875 C7.40321135 15.83219185 7.84448534 18.839112 8.4375 22.07421875 C8.623125 22.70972656 8.80875 23.34523437 9 24 C9.66 24.33 10.32 24.66 11 25 C12.23165614 28.11536554 12.99959236 30.99729936 13.5 34.3125 C13.665 35.199375 13.83 36.08625 14 37 C14.99 37.495 14.99 37.495 16 38 C16 39.32 16 40.64 16 42 C12.7 42 9.4 42 6 42 C5.67 40.02 5.34 38.04 5 36 C-0.61 36 -6.22 36 -12 36 C-12.99 37.98 -13.98 39.96 -15 42 C-18.3 42 -21.6 42 -25 42 C-24.52412535 40.33443873 -24.04796395 38.66895883 -23.5703125 37.00390625 C-23.0371001 35.13035858 -22.51801551 33.25280623 -22 31.375 C-21.14304515 28.48277738 -20.16881362 25.77593234 -19 23 C-18.69320312 22.23300781 -18.38640625 21.46601562 -18.0703125 20.67578125 C-17.36484532 18.91211331 -16.65147494 17.15158317 -15.9296875 15.39453125 C-15.58164063 14.54246094 -15.23359375 13.69039062 -14.875 12.8125 C-14.52179688 11.95269531 -14.16859375 11.09289062 -13.8046875 10.20703125 C-12.88581866 8.07835785 -12.88581866 8.07835785 -13 6 C-12.34 6 -11.68 6 -11 6 C-10.71125 5.030625 -10.4225 4.06125 -10.125 3.0625 C-8.15010578 -2.31360093 -5.05451297 -1.30720163 0 0 Z M-5 14 C-6.4216319 17.3171411 -7.39009109 20.44219804 -8 24 C-5.69 24 -3.38 24 -1 24 C-1.60990891 20.44219804 -2.5783681 17.3171411 -4 14 C-4.33 14 -4.66 14 -5 14 Z " fill="#2E5EA9" transform="translate(166,105)"/>
<path d="M0 0 C1.27875 -0.061875 2.5575 -0.12375 3.875 -0.1875 C4.95394531 -0.23970703 4.95394531 -0.23970703 6.0546875 -0.29296875 C6.69664062 -0.19628906 7.33859375 -0.09960938 8 0 C10.19681012 3.29521518 11.09956003 6.28004402 12.21875 10.0390625 C12.82326856 12.18888035 12.82326856 12.18888035 15 13 C15.19335938 12.14535156 15.38671875 11.29070312 15.5859375 10.41015625 C15.84632813 9.30542969 16.10671875 8.20070313 16.375 7.0625 C16.63023437 5.96035156 16.88546875 4.85820313 17.1484375 3.72265625 C17.42945313 2.82417969 17.71046875 1.92570312 18 1 C20.70879335 -0.35439668 23.00933268 -0.06501451 26 0 C27.52359531 2.93836239 28.78518275 5.92246295 30 9 C30.33 9.66 30.66 10.32 31 11 C30.67 11.66 30.34 12.32 30 13 C30.66 13 31.32 13 32 13 C32.19335938 12.39671875 32.38671875 11.7934375 32.5859375 11.171875 C32.84632813 10.37265625 33.10671875 9.5734375 33.375 8.75 C33.75785156 7.56664063 33.75785156 7.56664063 34.1484375 6.359375 C35 4 35 4 37 0 C39.97 0 42.94 0 46 0 C46 0.99 46 1.98 46 3 C45.34 3.33 44.68 3.66 44 4 C43.38096863 6.41197596 43.38096863 6.41197596 43 9.25 C42.21904033 14.40991209 40.77995818 18.50008043 38.375 23.125 C36.78427225 25.91991924 36.78427225 25.91991924 37 29 C36.34 29 35.68 29 35 29 C35 29.66 35 30.32 35 31 C32.69 31 30.38 31 28 31 C27.35242375 29.56328432 26.70700547 28.12559584 26.0625 26.6875 C25.70285156 25.88699219 25.34320313 25.08648437 24.97265625 24.26171875 C24 22 24 22 23 19 C22.34 18.67 21.68 18.34 21 18 C20.896875 18.845625 20.79375 19.69125 20.6875 20.5625 C19.9171146 24.41442701 18.63725486 27.44075031 17 31 C14.69 31 12.38 31 10 31 C10 30.34 10 29.68 10 29 C9.34 28.67 8.68 28.34 8 28 C7.25976679 26.02604477 6.61238899 24.01728138 6 22 C5.50402323 20.49866491 5.00379585 18.99872937 4.5 17.5 C3.63044508 14.90007447 2.77486529 12.29810944 1.9375 9.6875 C1.08968971 7.02522523 1.08968971 7.02522523 -0.1875 4.8125 C-1 3 -1 3 0 0 Z " fill="#2F5FA8" transform="translate(244,116)"/>
<path d="M0 0 C0 0.66 0 1.32 0 2 C1.32 2.33 2.64 2.66 4 3 C4 3.66 4 4.32 4 5 C4.66 5 5.32 5 6 5 C6.33 6.32 6.66 7.64 7 9 C7.66 9 8.32 9 9 9 C10 12 10 12 9 19 C1.41 19.33 -6.18 19.66 -14 20 C-14 20.99 -14 21.98 -14 23 C-10.50615721 24.16461426 -7.66344611 24.13568319 -4 24 C-3.67 23.67 -3.34 23.34 -3 23 C0.4375 22.8125 0.4375 22.8125 4 23 C6 25 6 25 6.1875 27.375 C4.49021634 31.1268902 2.07307846 31.82061551 -1.66015625 33.27734375 C-7.23259116 34.99837957 -11.63880856 33.71558126 -17 32 C-17 31.34 -17 30.68 -17 30 C-18.32 29.67 -19.64 29.34 -21 29 C-21 28.01 -21 27.02 -21 26 C-21.66 26 -22.32 26 -23 26 C-25.00603666 18.60273982 -26.0772668 13.86961389 -22.23046875 6.9375 C-16.67742203 -1.806345 -9.34155653 -0.53482194 0 0 Z M-13 10 C-13 10.66 -13 11.32 -13 12 C-9.37 12 -5.74 12 -2 12 C-3.49005926 8.03823842 -3.49005926 8.03823842 -5.8125 7.0625 C-8.93380429 6.97331988 -10.54548299 8.15911224 -13 10 Z " fill="#2D5CA6" transform="translate(129,115)"/>
<path d="M0 0 C2.39706123 -0.10854617 4.78915838 -0.18753157 7.1875 -0.25 C7.86103516 -0.28351563 8.53457031 -0.31703125 9.22851562 -0.3515625 C12.77940799 -0.4208482 14.7852605 -0.13540518 17.8125 1.7734375 C21.77840276 5.81015995 24.75127653 9.72003484 25.375 15.4375 C25 18 25 18 24 19 C22.21928754 19.08726223 20.4351686 19.10699041 18.65234375 19.09765625 C17.57275391 19.09443359 16.49316406 19.09121094 15.38085938 19.08789062 C14.24455078 19.07951172 13.10824219 19.07113281 11.9375 19.0625 C10.79732422 19.05798828 9.65714844 19.05347656 8.48242188 19.04882812 C5.65489649 19.03699747 2.8274736 19.0205141 0 19 C1.3089572 22.12197478 1.3089572 22.12197478 4 24 C9.32967208 24.34092041 9.32967208 24.34092041 14 22 C17.46418389 22.34641839 19.04929881 23.03286587 22 25 C21.11756917 27.96817643 20.35087777 29.69298196 18 31.75 C12.60992167 33.99586597 7.2476612 34.53126538 1.5625 33.1875 C-1 32 -1 32 -4 30 C-4 29.34 -4 28.68 -4 28 C-4.99 27.67 -5.98 27.34 -7 27 C-10.4697781 21.9880983 -10.88776714 16.89935581 -10 11 C-8.93344418 8.46630401 -7.86809284 7.08786847 -6 5 C-5.34 5 -4.68 5 -4 5 C-4 4.34 -4 3.68 -4 3 C-2.68 2.67 -1.36 2.34 0 2 C0 1.34 0 0.68 0 0 Z M1 10 C1 10.66 1 11.32 1 12 C5.29 12 9.58 12 14 12 C13.31009613 8.76273929 13.31009613 8.76273929 10.3125 7.625 C6.1751126 6.84436087 4.51089017 7.8265918 1 10 Z " fill="#2D5DA6" transform="translate(301,115)"/>
<path d="M0 0 C4.10063529 0.0649863 6.54768527 0.50515881 9.75 3.25 C13.27193689 7.13627519 14.02081011 9.60591346 13.921875 14.8671875 C13.80297881 16.95447625 13.66172131 19.04059196 13.5 21.125 C13.43425781 22.19492188 13.36851562 23.26484375 13.30078125 24.3671875 C13.13643805 26.99667871 12.95230603 29.62320249 12.75 32.25 C9.78 32.25 6.81 32.25 3.75 32.25 C3.42 25.32 3.09 18.39 2.75 11.25 C1.1 10.59 -0.55 9.93 -2.25 9.25 C-4.82386423 11.48814281 -5.68194839 12.90235606 -6.25 16.25 C-6.2941962 18.82166634 -6.29889486 21.36807488 -6.25 23.9375 C-6.20427025 26.38175518 -6.20279652 28.80426954 -6.25 31.25 C-7.25 32.25 -7.25 32.25 -9.28125 32.3828125 C-10.0959375 32.38023437 -10.910625 32.37765625 -11.75 32.375 C-12.5646875 32.37757813 -13.379375 32.38015625 -14.21875 32.3828125 C-16.25 32.25 -16.25 32.25 -17.25 31.25 C-17.34996094 29.20117803 -17.38080946 27.14891431 -17.3828125 25.09765625 C-17.38410156 23.84662109 -17.38539063 22.59558594 -17.38671875 21.30664062 C-17.38285156 19.98857422 -17.37898437 18.67050781 -17.375 17.3125 C-17.37886719 15.99830078 -17.38273438 14.68410156 -17.38671875 13.33007812 C-17.38542969 12.07775391 -17.38414062 10.82542969 -17.3828125 9.53515625 C-17.38168457 8.37894775 -17.38055664 7.22273926 -17.37939453 6.03149414 C-17.25 3.25 -17.25 3.25 -16.25 1.25 C-12.58333333 1.25 -8.91666667 1.25 -5.25 1.25 C-3.68966377 -0.31033623 -2.16052864 0.04292441 0 0 Z " fill="#2F60AD" transform="translate(202.25,114.75)"/>
<path d="M0 0 C2.93535777 2.20151833 4.62032606 3.6423052 5.6171875 7.20703125 C6.08796686 10.64179906 6.13198253 13.9706718 6.125 17.4375 C6.12886719 19.35369141 6.12886719 19.35369141 6.1328125 21.30859375 C6.01297995 24.6392337 5.63610631 27.73364456 5 31 C3.52093108 31.02689216 2.04172517 31.04634621 0.5625 31.0625 C-0.67306641 31.07990234 -0.67306641 31.07990234 -1.93359375 31.09765625 C-4 31 -4 31 -5 30 C-5.08700342 28.36527118 -5.10701063 26.72685945 -5.09765625 25.08984375 C-5.09443359 24.10048828 -5.09121094 23.11113281 -5.08789062 22.09179688 C-5.07951172 21.05087891 -5.07113281 20.00996094 -5.0625 18.9375 C-5.05798828 17.89271484 -5.05347656 16.84792969 -5.04882812 15.77148438 C-5.03699913 13.1809334 -5.02051689 10.59049441 -5 8 C-7.97 8.66 -10.94 9.32 -14 10 C-13.67 11.32 -13.34 12.64 -13 14 C-13.06129175 16.74977072 -13.18019544 19.4480609 -13.375 22.1875 C-13.41882813 22.92419922 -13.46265625 23.66089844 -13.5078125 24.41992188 C-13.86872691 29.86872691 -13.86872691 29.86872691 -15 31 C-16.8125 31.1328125 -16.8125 31.1328125 -19 31.125 C-19.721875 31.12757813 -20.44375 31.13015625 -21.1875 31.1328125 C-23 31 -23 31 -24 30 C-24.09996094 27.95117803 -24.13080946 25.89891431 -24.1328125 23.84765625 C-24.13410156 22.59662109 -24.13539062 21.34558594 -24.13671875 20.05664062 C-24.13285156 18.73857422 -24.12898438 17.42050781 -24.125 16.0625 C-24.12886719 14.74830078 -24.13273437 13.43410156 -24.13671875 12.08007812 C-24.13542969 10.82775391 -24.13414063 9.57542969 -24.1328125 8.28515625 C-24.13168457 7.12894775 -24.13055664 5.97273926 -24.12939453 4.78149414 C-24 2 -24 2 -23 0 C-22.32453125 0.01160156 -21.6490625 0.02320312 -20.953125 0.03515625 C-20.06109375 0.04417969 -19.1690625 0.05320312 -18.25 0.0625 C-17.36828125 0.07410156 -16.4865625 0.08570312 -15.578125 0.09765625 C-1.65171898 -0.42985913 -1.65171898 -0.42985913 0 0 Z " fill="#2A579C" transform="translate(95,116)"/>
<path d="M0 0 C0.83265381 0.00523682 1.66530762 0.01047363 2.52319336 0.01586914 C3.42231445 0.0190918 4.32143555 0.02231445 5.24780273 0.02563477 C6.66609375 0.03820312 6.66609375 0.03820312 8.11303711 0.05102539 C9.06243164 0.05553711 10.01182617 0.06004883 10.98999023 0.06469727 C13.34353242 0.07652411 15.69704243 0.09446018 18.05053711 0.11352539 C18.05053711 3.08352539 18.05053711 6.05352539 18.05053711 9.11352539 C14.42053711 9.44352539 10.79053711 9.77352539 7.05053711 10.11352539 C7.05053711 11.76352539 7.05053711 13.41352539 7.05053711 15.11352539 C10.68053711 15.44352539 14.31053711 15.77352539 18.05053711 16.11352539 C18.14819336 23.04711914 18.14819336 23.04711914 18.05053711 25.11352539 C17.05053711 26.11352539 17.05053711 26.11352539 14.76538086 26.21118164 C13.3905957 26.1937793 13.3905957 26.1937793 11.98803711 26.17602539 C11.06893555 26.16700195 10.14983398 26.15797852 9.20288086 26.14868164 C8.49260742 26.13708008 7.78233398 26.12547852 7.05053711 26.11352539 C7.06213867 27.25692383 7.07374023 28.40032227 7.08569336 29.57836914 C7.09506999 31.06925293 7.10417032 32.56013848 7.11303711 34.05102539 C7.12141602 34.80577148 7.12979492 35.56051758 7.13842773 36.33813477 C7.14706152 38.26346852 7.10278044 40.1888812 7.05053711 42.11352539 C6.05053711 43.11352539 6.05053711 43.11352539 3.98413086 43.21118164 C3.16041992 43.19958008 2.33670898 43.18797852 1.48803711 43.17602539 C0.66174805 43.16700195 -0.16454102 43.15797852 -1.01586914 43.14868164 C-1.65395508 43.13708008 -2.29204102 43.12547852 -2.94946289 43.11352539 C-5.40845834 32.80916353 -3.97663051 21.18935443 -3.51196289 10.67602539 C-3.47280762 9.7459668 -3.43365234 8.8159082 -3.39331055 7.85766602 C-3.33022705 6.563125 -3.33022705 6.563125 -3.26586914 5.24243164 C-3.22921143 4.46971924 -3.19255371 3.69700684 -3.15478516 2.90087891 C-2.8646487 0.37520831 -2.54296008 0.14808722 0 0 Z " fill="#2E5EA6" transform="translate(33.949462890625,103.886474609375)"/>
<path d="M0 0 C0.90105469 0.00902344 1.80210937 0.01804687 2.73046875 0.02734375 C3.41753906 0.03894531 4.10460937 0.05054687 4.8125 0.0625 C5.1425 1.0525 5.4725 2.0425 5.8125 3.0625 C7.81266466 4.27132096 7.81266466 4.27132096 9.8125 5.0625 C9.4825 6.0525 9.1525 7.0425 8.8125 8.0625 C8.1525 8.0625 7.4925 8.0625 6.8125 8.0625 C6.4825 8.7225 6.1525 9.3825 5.8125 10.0625 C1.0625 10.1875 1.0625 10.1875 -1.1875 9.0625 C-0.8575 9.7225 -0.5275 10.3825 -0.1875 11.0625 C0.1425 11.7225 0.4725 12.3825 0.8125 13.0625 C1.9571875 13.495625 1.9571875 13.495625 3.125 13.9375 C6.25683774 15.24850184 7.76195236 16.35284776 9.8125 19.0625 C10.875 22.5 10.875 22.5 10.8125 26.0625 C7.84609908 30.01770122 4.47371081 32.44900395 -0.1875 34.0625 C-4.68635119 34.258443 -8.0757908 33.83010873 -11.8125 31.25 C-13.1875 29.0625 -13.1875 29.0625 -13.125 27 C-12.09927008 24.88015818 -10.95635138 23.60063164 -9.1875 22.0625 C-8.445 22.3925 -7.7025 22.7225 -6.9375 23.0625 C-4.04866688 24.29032871 -4.04866688 24.29032871 -0.1875 24.0625 C-0.82729849 22.03008273 -0.82729849 22.03008273 -2.1875 20.0625 C-2.93 19.959375 -3.6725 19.85625 -4.4375 19.75 C-8.16162118 18.8189697 -9.72431837 16.98954756 -12.078125 14.03515625 C-13.1875 12.0625 -13.1875 12.0625 -13.3125 8.375 C-12.11380825 4.84551874 -11.12421962 3.30822677 -8.1875 1.0625 C-5.17259443 0.05753148 -3.14568308 -0.04085303 0 0 Z " fill="#2A579F" transform="translate(232.1875,114.9375)"/>
<path d="M0 0 C1.12341797 0.10441406 1.12341797 0.10441406 2.26953125 0.2109375 C2.92953125 1.2009375 3.58953125 2.1909375 4.26953125 3.2109375 C3.01953125 5.7109375 3.01953125 5.7109375 1.26953125 8.2109375 C-0.05046875 8.2109375 -1.37046875 8.2109375 -2.73046875 8.2109375 C-5.17745772 13.01539145 -5.16666936 17.74885456 -5.35546875 23.0234375 C-5.41347656 24.34891602 -5.41347656 24.34891602 -5.47265625 25.70117188 C-5.56647659 27.87076722 -5.64954201 30.04082297 -5.73046875 32.2109375 C-7.20953767 32.23782966 -8.68874358 32.25728371 -10.16796875 32.2734375 C-10.99167969 32.28503906 -11.81539063 32.29664063 -12.6640625 32.30859375 C-14.73046875 32.2109375 -14.73046875 32.2109375 -15.73046875 31.2109375 C-15.98462425 26.57078425 -15.91569673 21.91972444 -15.91796875 17.2734375 C-15.93021484 15.95923828 -15.94246094 14.64503906 -15.95507812 13.29101562 C-15.95797852 11.4125293 -15.95797852 11.4125293 -15.9609375 9.49609375 C-15.96504639 8.33988525 -15.96915527 7.18367676 -15.97338867 5.99243164 C-15.73046875 3.2109375 -15.73046875 3.2109375 -13.73046875 1.2109375 C-11.3046875 0.796875 -11.3046875 0.796875 -8.41796875 0.5859375 C-7.00064453 0.47378906 -7.00064453 0.47378906 -5.5546875 0.359375 C-3.70181138 0.26199009 -1.84992156 0.1429124 0 0 Z " fill="#3267B4" transform="translate(342.73046875,114.7890625)"/>
<path d="M0 0 C3.87551113 4.31842669 4.72341095 7.95648432 4.42578125 13.5859375 C3.87262092 16.72220431 3.12836682 18.71334231 0.91015625 21.015625 C-3.3223998 23.19681953 -8.38832898 22.39717741 -13 22 C-13.33 21.01 -13.66 20.02 -14 19 C-14.639375 18.690625 -15.27875 18.38125 -15.9375 18.0625 C-18 17 -18 17 -19.3125 15.3125 C-20.29016222 12.0239998 -19.63938629 9.32480873 -19 6 C-18.34 6 -17.68 6 -17 6 C-16.9071875 5.1028125 -16.9071875 5.1028125 -16.8125 4.1875 C-16 2 -16 2 -13.9375 0.25 C-9.23086885 -1.75282177 -4.89318896 -1.63106299 0 0 Z M-11 6 C-11.91004613 9.07140568 -12.33694826 11.79899154 -12 15 C-9.04622502 17.36980013 -9.04622502 17.36980013 -5 17 C-2.87491756 13.81237635 -2.4979837 11.73487777 -2 8 C-5.4352048 5.70986347 -6.985331 5.82157027 -11 6 Z " fill="#030103" transform="translate(270,162)"/>
<path d="M0 0 C3.60911206 1.7095794 5.34561921 2.8994505 7.375 6.3125 C8.18086091 9.77770189 8.44355336 12.45157314 8 16 C4.67250275 20.53749625 1.45959771 21.9821089 -4 23 C-6.72236053 23.18440232 -9.26219379 23.14161067 -12 23 C-13 22 -13 22 -13.11352539 19.95874023 C-13.10828857 19.08419189 -13.10305176 18.20964355 -13.09765625 17.30859375 C-13.09443359 16.36435547 -13.09121094 15.42011719 -13.08789062 14.44726562 C-13.07951172 13.45404297 -13.07113281 12.46082031 -13.0625 11.4375 C-13.05798828 10.44041016 -13.05347656 9.44332031 -13.04882812 8.41601562 C-13.03700007 5.94395151 -13.02051849 3.47200482 -13 1 C-9.05073852 -0.97463074 -4.3043643 -0.43711457 0 0 Z M-6 7 C-6 10.63 -6 14.26 -6 18 C-4.68 18 -3.36 18 -2 18 C-2 17.34 -2 16.68 -2 16 C-1.01 15.67 -0.02 15.34 1 15 C1.16681109 12.08347826 1.16681109 12.08347826 1 9 C0.34 8.34 -0.32 7.68 -1 7 C-2.65 7 -4.3 7 -6 7 Z " fill="#070409" transform="translate(128,161)"/>
<path d="M0 0 C1.29550781 -0.02126953 1.29550781 -0.02126953 2.6171875 -0.04296875 C5.31611813 0.20506382 6.86285306 0.71367699 9.125 2.1875 C11.125 5.1875 11.125 5.1875 11.125 9.1875 C10.465 9.8475 9.805 10.5075 9.125 11.1875 C9.125 11.8475 9.125 12.5075 9.125 13.1875 C9.785 13.5175 10.445 13.8475 11.125 14.1875 C11.455 15.1775 11.785 16.1675 12.125 17.1875 C11.465 18.1775 10.805 19.1675 10.125 20.1875 C9.465 20.1875 8.805 20.1875 8.125 20.1875 C7.795 21.1775 7.465 22.1675 7.125 23.1875 C4.97923363 23.21435938 2.83337355 23.23383088 0.6875 23.25 C-0.50746094 23.26160156 -1.70242187 23.27320313 -2.93359375 23.28515625 C-5.875 23.1875 -5.875 23.1875 -6.875 22.1875 C-6.96185603 20.62577255 -6.98202219 19.06020656 -6.97265625 17.49609375 C-6.96943359 16.55185547 -6.96621094 15.60761719 -6.96289062 14.63476562 C-6.95451172 13.64154297 -6.94613281 12.64832031 -6.9375 11.625 C-6.93298828 10.62791016 -6.92847656 9.63082031 -6.92382812 8.60351562 C-6.91200007 6.13145151 -6.89551849 3.65950482 -6.875 1.1875 C-4.42528376 -0.03735812 -2.73265539 0.02027192 0 0 Z M-0.875 6.1875 C-0.545 7.1775 -0.215 8.1675 0.125 9.1875 C1.445 9.1875 2.765 9.1875 4.125 9.1875 C4.125 8.5275 4.125 7.8675 4.125 7.1875 C2.475 6.8575 0.825 6.5275 -0.875 6.1875 Z M-0.875 14.1875 C-0.875 15.5075 -0.875 16.8275 -0.875 18.1875 C0.775 18.1875 2.425 18.1875 4.125 18.1875 C3.795 17.1975 3.465 16.2075 3.125 15.1875 C1.10991642 14.45426204 1.10991642 14.45426204 -0.875 14.1875 Z " fill="#050306" transform="translate(210.875,160.8125)"/>
<path d="M0 0 C3.86261056 1.96641992 6.99327523 4.09803517 9 8 C9.26274852 11.7441664 9.18823797 14.43528609 8 18 C7.34 18 6.68 18 6 18 C6 18.66 6 19.32 6 20 C2.22504092 22.88015397 -0.56393953 23.36542021 -5.25 23.25 C-6.30703125 23.23453125 -7.3640625 23.2190625 -8.453125 23.203125 C-11 23 -11 23 -12 22 C-12.08685603 20.43827255 -12.10702219 18.87270656 -12.09765625 17.30859375 C-12.09443359 16.36435547 -12.09121094 15.42011719 -12.08789062 14.44726562 C-12.07951172 13.45404297 -12.07113281 12.46082031 -12.0625 11.4375 C-12.05798828 10.44041016 -12.05347656 9.44332031 -12.04882812 8.41601562 C-12.03700007 5.94395151 -12.02051849 3.47200482 -12 1 C-8.29018719 -0.85490641 -4.04876607 -0.4540091 0 0 Z M-6 7 C-6 10.63 -6 14.26 -6 18 C-1.3524908 18.43946905 -1.3524908 18.43946905 0.8125 16.875 C2.52849028 14.16554166 2.333728 12.13704316 2 9 C0.10244856 6.65026182 0.10244856 6.65026182 -3.125 6.875 C-4.07375 6.91625 -5.0225 6.9575 -6 7 Z " fill="#080409" transform="translate(319,161)"/>
<path d="M0 0 C3.5625 1.5625 3.5625 1.5625 6 4 C6.375 7.75 6.375 7.75 6 11 C5.34 11 4.68 11 4 11 C4.4723551 13.20432382 5.00013864 15.00026096 6.0625 17 C7 19 7 19 7 23 C0.47692308 22.50769231 0.47692308 22.50769231 -1.9375 19.9375 C-2.288125 19.298125 -2.63875 18.65875 -3 18 C-3.99 20.475 -3.99 20.475 -5 23 C-6.66611905 23.042721 -8.33382885 23.04063832 -10 23 C-11 22 -11 22 -11.11352539 19.95874023 C-11.10828857 19.08419189 -11.10305176 18.20964355 -11.09765625 17.30859375 C-11.09443359 16.36435547 -11.09121094 15.42011719 -11.08789062 14.44726562 C-11.07951172 13.45404297 -11.07113281 12.46082031 -11.0625 11.4375 C-11.05798828 10.44041016 -11.05347656 9.44332031 -11.04882812 8.41601562 C-11.03700007 5.94395151 -11.02051849 3.47200482 -11 1 C-7.51950288 -0.74024856 -3.80510443 -0.44615965 0 0 Z M-5 7 C-5 8.32 -5 9.64 -5 11 C-4.01 10.67 -3.02 10.34 -2 10 C-2 9.01 -2 8.02 -2 7 C-2.99 7 -3.98 7 -5 7 Z " fill="#05030A" transform="translate(239,161)"/>
<path d="M0 0 C0 4.95 0 9.9 0 15 C0.99 15.33 1.98 15.66 3 16 C3.33 15.67 3.66 15.34 4 15 C4.66 15 5.32 15 6 15 C6.33 10.05 6.66 5.1 7 0 C11 -1 11 -1 12.71875 0.01171875 C15.65414506 4.56695072 14.59787723 10.8322097 14 16 C12.85910555 19.48304812 12.23572721 19.84284853 9 22 C5.14431077 22.82085138 1.85568923 22.82085138 -2 22 C-5.88248337 19.41167775 -5.88248337 19.41167775 -7 16 C-8.37316915 4.13092408 -8.37316915 4.13092408 -5.71875 0.01171875 C-4 -1 -4 -1 0 0 Z " fill="#020204" transform="translate(95,162)"/>
<path d="M0 0 C2.97 0 5.94 0 9 0 C9 10.23 9 20.46 9 31 C6.03 31 3.06 31 0 31 C-1.58047192 29.41952808 -1.1297906 27.81457913 -1.1328125 25.625 C-1.13410156 24.72136719 -1.13539062 23.81773437 -1.13671875 22.88671875 C-1.13285156 21.93410156 -1.12898438 20.98148438 -1.125 20 C-1.12886719 19.07832031 -1.13273437 18.15664062 -1.13671875 17.20703125 C-1.12851779 11.39255189 -0.74448818 5.76682909 0 0 Z " fill="#3268B3" transform="translate(56,116)"/>
<path d="M0 0 C1.11375 0.185625 1.11375 0.185625 2.25 0.375 C2.25 1.035 2.25 1.695 2.25 2.375 C2.91 2.705 3.57 3.035 4.25 3.375 C4.25 4.695 4.25 6.015 4.25 7.375 C4.91 7.705 5.57 8.035 6.25 8.375 C7.03125 10.30078125 7.03125 10.30078125 7.75 12.6875 C8.49168339 15.12618724 9.20478553 17.29022286 10.40625 19.54296875 C10.6846875 20.14753906 10.963125 20.75210938 11.25 21.375 C10.92 22.035 10.59 22.695 10.25 23.375 C7.9068787 23.11938677 5.57156597 22.78229228 3.25 22.375 C2.92 21.715 2.59 21.055 2.25 20.375 C2.58 19.715 2.91 19.055 3.25 18.375 C0.94 18.375 -1.37 18.375 -3.75 18.375 C-4.08 19.695 -4.41 21.015 -4.75 22.375 C-7.06 22.705 -9.37 23.035 -11.75 23.375 C-11.75 19.05045022 -10.18845022 15.41840486 -8.75 11.375 C-8.440625 10.488125 -8.13125 9.60125 -7.8125 8.6875 C-4.07634338 0.55586501 -4.07634338 0.55586501 0 0 Z M-0.75 11.375 C-0.09 12.035 0.57 12.695 1.25 13.375 C1.25 12.715 1.25 12.055 1.25 11.375 C0.59 11.375 -0.07 11.375 -0.75 11.375 Z " fill="#040305" transform="translate(290.75,160.625)"/>
<path d="M0 0 C2.70851245 3.28890797 3.66801646 7.00404939 5 11 C5.53625 11.845625 6.0725 12.69125 6.625 13.5625 C8.16914432 16.29984674 8.2648728 17.90981733 8 21 C5.6875 21.6875 5.6875 21.6875 3 22 C1.1875 20.6875 1.1875 20.6875 0 19 C0 18.34 0 17.68 0 17 C-2.31 17 -4.62 17 -7 17 C-6.67 17.99 -6.34 18.98 -6 20 C-8.31 20.66 -10.62 21.32 -13 22 C-13.66 21.01 -14.32 20.02 -15 19 C-14.525625 18.443125 -14.05125 17.88625 -13.5625 17.3125 C-11.84194338 14.76607621 -11.51217197 12.99986439 -11 10 C-10.34742127 8.327767 -9.68132451 6.66072849 -9 5 C-8.835 4.2575 -8.67 3.515 -8.5 2.75 C-8.335 2.1725 -8.17 1.595 -8 1 C-5.13879744 -0.43060128 -3.15989415 -0.38692581 0 0 Z M-3 8 C-2 10 -2 10 -2 10 Z " fill="#050307" transform="translate(190,162)"/>
<path d="M0 0 C2.4375 2 2.4375 2 4 4 C2.68 5.32 1.36 6.64 0 8 C0.7425 8.680625 0.7425 8.680625 1.5 9.375 C3 11 3 11 3 13 C3.66 13 4.32 13 5 13 C5 14.65 5 16.3 5 18 C4.34 18 3.68 18 3 18 C2.814375 18.639375 2.62875 19.27875 2.4375 19.9375 C1 22 1 22 -2.375 22.75 C-4.91200627 22.92496595 -7.45696758 23 -10 23 C-10.66 21.35 -11.32 19.7 -12 18 C-11.34 17.67 -10.68 17.34 -10 17 C-10 16.34 -10 15.68 -10 15 C-9.4225 15.309375 -8.845 15.61875 -8.25 15.9375 C-6.15705816 16.92583364 -4.25464725 17.5168613 -2 18 C-3.96323053 15.81863275 -5.55713513 14.69412189 -8.1875 13.25 C-11 11 -11 11 -11.625 7.5 C-11 4 -11 4 -9.4375 1.5625 C-6.05782196 -0.60396028 -3.94016013 -0.56288002 0 0 Z M-4 7 C-4 7.66 -4 8.32 -4 9 C-3.01 8.67 -2.02 8.34 -1 8 C-1.99 7.67 -2.98 7.34 -4 7 Z " fill="#020102" transform="translate(56,161)"/>
<path d="M0 0 C0 0.66 0 1.32 0 2 C0.66 2 1.32 2 2 2 C2.33 2.99 2.66 3.98 3 5 C4.65 2.69 6.3 0.38 8 -2 C10.475 -1.505 10.475 -1.505 13 -1 C12.25 5.75 12.25 5.75 10 8 C9.01 8.495 9.01 8.495 8 9 C8.02320313 9.69867188 8.04640625 10.39734375 8.0703125 11.1171875 C8.09738281 12.48230469 8.09738281 12.48230469 8.125 13.875 C8.14820313 14.77992188 8.17140625 15.68484375 8.1953125 16.6171875 C8 19 8 19 6 21 C2.375 20.625 2.375 20.625 -1 20 C-0.95359375 19.40832031 -0.9071875 18.81664062 -0.859375 18.20703125 C-0.56771342 12.85506411 -0.56771342 12.85506411 -3 8.1875 C-3.66 7.465625 -4.32 6.74375 -5 6 C-5 4.68 -5 3.36 -5 2 C-5.66 2 -6.32 2 -7 2 C-7 1.01 -7 0.02 -7 -1 C-3.51418144 -2.2020064 -3.32007656 -2.21338437 0 0 Z " fill="#050305" transform="translate(147,163)"/>
<path d="M0 0 C5.94 0 11.88 0 18 0 C18 1.65 18 3.3 18 5 C17.67 5.33 17.34 5.66 17 6 C15.35 6 13.7 6 12 6 C12 11.28 12 16.56 12 22 C10.02 22 8.04 22 6 22 C5 21 5 21 4.90234375 17.62109375 C4.90901631 16.22652923 4.92097468 14.83198257 4.9375 13.4375 C4.94201172 12.72658203 4.94652344 12.01566406 4.95117188 11.28320312 C4.96299136 9.52209987 4.98092737 7.76103964 5 6 C3.35 5.67 1.7 5.34 0 5 C0 3.35 0 1.7 0 0 Z " fill="#020204" transform="translate(65,162)"/>
<path d="M0 0 C1.98 0 3.96 0 6 0 C6 0.66 6 1.32 6 2 C6.99 2 7.98 2 9 2 C9 4.33333333 9 6.66666667 9 9 C8.01 9.495 8.01 9.495 7 10 C6.67 16.27 6.34 22.54 6 29 C4.02 29 2.04 29 0 29 C0 19.43 0 9.86 0 0 Z " fill="#3367B5" transform="translate(73,117)"/>
<path d="M0 0 C1.98 0 3.96 0 6 0 C6 0.66 6 1.32 6 2 C6.66 2.33 7.32 2.66 8 3 C8.625 6.0625 8.625 6.0625 9 9 C8.01 9.495 8.01 9.495 7 10 C6.67 16.27 6.34 22.54 6 29 C4.02 29 2.04 29 0 29 C0 19.43 0 9.86 0 0 Z " fill="#3367B3" transform="translate(188,117)"/>
<path d="M0 0 C1.12341797 0.10441406 1.12341797 0.10441406 2.26953125 0.2109375 C2.92953125 1.2009375 3.58953125 2.1909375 4.26953125 3.2109375 C3.01953125 5.7109375 3.01953125 5.7109375 1.26953125 8.2109375 C-0.05046875 8.2109375 -1.37046875 8.2109375 -2.73046875 8.2109375 C-5.17745772 13.01539145 -5.16666936 17.74885456 -5.35546875 23.0234375 C-5.41347656 24.34891602 -5.41347656 24.34891602 -5.47265625 25.70117188 C-5.56647659 27.87076722 -5.64954201 30.04082297 -5.73046875 32.2109375 C-7.20953767 32.23782966 -8.68874358 32.25728371 -10.16796875 32.2734375 C-10.99167969 32.28503906 -11.81539063 32.29664063 -12.6640625 32.30859375 C-14.73046875 32.2109375 -14.73046875 32.2109375 -15.73046875 31.2109375 C-15.98462425 26.57078425 -15.91569673 21.91972444 -15.91796875 17.2734375 C-15.93021484 15.95923828 -15.94246094 14.64503906 -15.95507812 13.29101562 C-15.95797852 11.4125293 -15.95797852 11.4125293 -15.9609375 9.49609375 C-15.96504639 8.33988525 -15.96915527 7.18367676 -15.97338867 5.99243164 C-15.73046875 3.2109375 -15.73046875 3.2109375 -13.73046875 1.2109375 C-11.3046875 0.796875 -11.3046875 0.796875 -8.41796875 0.5859375 C-7.00064453 0.47378906 -7.00064453 0.47378906 -5.5546875 0.359375 C-3.70181138 0.26199009 -1.84992156 0.1429124 0 0 Z M-12.73046875 2.2109375 C-12.73046875 11.7809375 -12.73046875 21.3509375 -12.73046875 31.2109375 C-10.75046875 31.2109375 -8.77046875 31.2109375 -6.73046875 31.2109375 C-6.40046875 23.9509375 -6.07046875 16.6909375 -5.73046875 9.2109375 C-4.74046875 8.8809375 -3.75046875 8.5509375 -2.73046875 8.2109375 C-2.73046875 7.5509375 -2.73046875 6.8909375 -2.73046875 6.2109375 C-3.39046875 6.2109375 -4.05046875 6.2109375 -4.73046875 6.2109375 C-4.73046875 5.5509375 -4.73046875 4.8909375 -4.73046875 4.2109375 C-5.72046875 4.2109375 -6.71046875 4.2109375 -7.73046875 4.2109375 C-7.73046875 3.5509375 -7.73046875 2.8909375 -7.73046875 2.2109375 C-9.38046875 2.2109375 -11.03046875 2.2109375 -12.73046875 2.2109375 Z M-4.73046875 2.2109375 C-4.40046875 2.8709375 -4.07046875 3.5309375 -3.73046875 4.2109375 C-3.40046875 3.5509375 -3.07046875 2.8909375 -2.73046875 2.2109375 C-3.39046875 2.2109375 -4.05046875 2.2109375 -4.73046875 2.2109375 Z " fill="#163977" transform="translate(342.73046875,114.7890625)"/>
<path d="M0 0 C1.27875 -0.061875 2.5575 -0.12375 3.875 -0.1875 C4.95394531 -0.23970703 4.95394531 -0.23970703 6.0546875 -0.29296875 C6.69664062 -0.19628906 7.33859375 -0.09960938 8 0 C10.19681012 3.29521518 11.09956003 6.28004402 12.21875 10.0390625 C12.82326856 12.18888035 12.82326856 12.18888035 15 13 C15.33 12.34 15.66 11.68 16 11 C15.67 12.98 15.34 14.96 15 17 C14.01 16.67 13.02 16.34 12 16 C12 15.34 12 14.68 12 14 C10.35 14.33 8.7 14.66 7 15 C7.33 18.3 7.66 21.6 8 25 C6.26445622 22.39668433 5.42617374 20.60192714 4.5 17.6875 C4.24347656 16.8934375 3.98695313 16.099375 3.72265625 15.28125 C3.48417969 14.5284375 3.24570313 13.775625 3 13 C1.66511379 8.79429731 1.66511379 8.79429731 -0.1875 4.8125 C-1 3 -1 3 0 0 Z " fill="#2A589E" transform="translate(244,116)"/>
<path d="M0 0 C0.99 0.66 1.98 1.32 3 2 C0.35261084 3.4606285 -0.89448334 4 -4 4 C-4 3.34 -4 2.68 -4 2 C-5.98 2 -7.96 2 -10 2 C-10 11.57 -10 21.14 -10 31 C-8.02 31 -6.04 31 -4 31 C-4 24.73 -4 18.46 -4 12 C-3.01 12 -2.02 12 -1 12 C-1.165 12.50144531 -1.33 13.00289062 -1.5 13.51953125 C-2.18365706 16.9111112 -2.0654845 20.2462895 -2 23.6875 C-1.95427025 26.13175518 -1.95279652 28.55426954 -2 31 C-3 32 -3 32 -5.03125 32.1328125 C-5.8459375 32.13023437 -6.660625 32.12765625 -7.5 32.125 C-8.3146875 32.12757813 -9.129375 32.13015625 -9.96875 32.1328125 C-12 32 -12 32 -13 31 C-13.09996094 28.95117803 -13.13080946 26.89891431 -13.1328125 24.84765625 C-13.13410156 23.59662109 -13.13539063 22.34558594 -13.13671875 21.05664062 C-13.13285156 19.73857422 -13.12898437 18.42050781 -13.125 17.0625 C-13.12886719 15.74830078 -13.13273438 14.43410156 -13.13671875 13.08007812 C-13.13542969 11.82775391 -13.13414062 10.57542969 -13.1328125 9.28515625 C-13.13168457 8.12894775 -13.13055664 6.97273926 -13.12939453 5.78149414 C-13 3 -13 3 -12 1 C-8.33333333 1 -4.66666667 1 -1 1 C-0.67 0.67 -0.34 0.34 0 0 Z " fill="#193975" transform="translate(198,115)"/>
<path d="M0 0 C2.97 0 5.94 0 9 0 C9 10.23 9 20.46 9 31 C6.03 31 3.06 31 0 31 C-1.58047192 29.41952808 -1.1297906 27.81457913 -1.1328125 25.625 C-1.13410156 24.72136719 -1.13539062 23.81773437 -1.13671875 22.88671875 C-1.13285156 21.93410156 -1.12898438 20.98148438 -1.125 20 C-1.12886719 19.07832031 -1.13273437 18.15664062 -1.13671875 17.20703125 C-1.12851779 11.39255189 -0.74448818 5.76682909 0 0 Z M2 1 C2 10.57 2 20.14 2 30 C3.98 30 5.96 30 8 30 C8 20.43 8 10.86 8 1 C6.02 1 4.04 1 2 1 Z " fill="#20417B" transform="translate(56,116)"/>
<path d="M0 0 C6.0546875 -0.1953125 6.0546875 -0.1953125 8 0 C8.66 0.66 9.32 1.32 10 2 C9.01 2.33 8.02 2.66 7 3 C7 2.34 7 1.68 7 1 C5.02 1 3.04 1 1 1 C1 10.57 1 20.14 1 30 C2.98 30 4.96 30 7 30 C7 23.73 7 17.46 7 11 C7.66 10.67 8.32 10.34 9 10 C10.41209747 14.01499356 9.92105682 18.02420091 9.625 22.1875 C9.58117187 22.92419922 9.53734375 23.66089844 9.4921875 24.41992188 C9.13127309 29.86872691 9.13127309 29.86872691 8 31 C6.1875 31.1328125 6.1875 31.1328125 4 31.125 C3.278125 31.12757813 2.55625 31.13015625 1.8125 31.1328125 C0 31 0 31 -1 30 C-1.09996094 27.95117803 -1.13080946 25.89891431 -1.1328125 23.84765625 C-1.13410156 22.59662109 -1.13539062 21.34558594 -1.13671875 20.05664062 C-1.13285156 18.73857422 -1.12898438 17.42050781 -1.125 16.0625 C-1.12886719 14.74830078 -1.13273437 13.43410156 -1.13671875 12.08007812 C-1.13542969 10.82775391 -1.13414063 9.57542969 -1.1328125 8.28515625 C-1.13168457 7.12894775 -1.13055664 5.97273926 -1.12939453 4.78149414 C-1 2 -1 2 0 0 Z " fill="#1C3D86" transform="translate(72,116)"/>
<path d="M0 0 C2.25 0.125 2.25 0.125 5 1 C7.3125 4.0625 7.3125 4.0625 9 7 C7.375 10 7.375 10 5 13 C1.875 13.5625 1.875 13.5625 -1 13 C-3.4294516 9.3558226 -3.16179575 7.28758728 -3 3 C-2.01 2.67 -1.02 2.34 0 2 C0 1.34 0 0.68 0 0 Z " fill="#28539E" transform="translate(59,102)"/>
<path d="M0 0 C0.66 0 1.32 0 2 0 C2 1.65 2 3.3 2 5 C5.63 5.33 9.26 5.66 13 6 C13.09765625 12.93359375 13.09765625 12.93359375 13 15 C12 16 12 16 9.71484375 16.09765625 C7.14322917 16.06510417 4.57161458 16.03255208 2 16 C2 21.28 2 26.56 2 32 C1.01 32.495 1.01 32.495 0 33 C0 26.73 0 20.46 0 14 C3.96 14 7.92 14 12 14 C12 11.69 12 9.38 12 7 C8.04 7 4.08 7 0 7 C0 4.69 0 2.38 0 0 Z " fill="#112E63" transform="translate(39,114)"/>
<path d="M0 0 C0.33 0.66 0.66 1.32 1 2 C3.01669827 3.13350534 3.01669827 3.13350534 5 4 C1.4981069 6.23429743 -1.8939895 7.81838187 -5.8125 9.1875 C-6.78832031 9.53167969 -7.76414062 9.87585938 -8.76953125 10.23046875 C-9.50558594 10.48441406 -10.24164063 10.73835938 -11 11 C-11 10.01 -11 9.02 -11 8 C-10.34 8 -9.68 8 -9 8 C-9 7.34 -9 6.68 -9 6 C-8.34 6 -7.68 6 -7 6 C-7 5.34 -7 4.68 -7 4 C-3.58823529 0 -3.58823529 0 0 0 Z " fill="#E67F23" transform="translate(61,69)"/>
<path d="M0 0 C3.82792868 1.5595265 6.36359864 3.83631836 9 7 C8.8125 9.3125 8.8125 9.3125 8 11 C3.0276578 9.50829734 -1.41845739 7.39542583 -6 5 C-2.25 3 -2.25 3 0 3 C0 2.01 0 1.02 0 0 Z " fill="#E78129" transform="translate(308,69)"/>
<path d="M0 0 C1.2375 0.1546875 1.2375 0.1546875 2.5 0.3125 C3.16 1.3025 3.82 2.2925 4.5 3.3125 C3.25 5.8125 3.25 5.8125 1.5 8.3125 C0.18 8.3125 -1.14 8.3125 -2.5 8.3125 C-2.5 7.6525 -2.5 6.9925 -2.5 6.3125 C-3.16 6.3125 -3.82 6.3125 -4.5 6.3125 C-4.5 1.94678789 -4.46679726 0.55834966 0 0 Z " fill="#3265B1" transform="translate(342.5,114.6875)"/>
<path d="M0 0 C0.66 0.99 1.32 1.98 2 3 C1.67 3.639375 1.34 4.27875 1 4.9375 C-0.07271225 6.76794567 -0.07271225 6.76794567 0 8 C1.65 8 3.3 8 5 8 C4.49396008 5.83125748 4.00016187 4.00032373 3 2 C4.65 2.33 6.3 2.66 8 3 C8 5.64 8 8.28 8 11 C4.37 11 0.74 11 -3 11 C-2.53199289 6.94393835 -2.12046792 3.53411321 0 0 Z " fill="#1B3870" transform="translate(159,120)"/>
<path d="M0 0 C1.58206057 0.00667536 3.16410534 0.0186375 4.74609375 0.03515625 C5.55240234 0.03966797 6.35871094 0.04417969 7.18945312 0.04882812 C9.18753131 0.06065107 11.18557158 0.07858711 13.18359375 0.09765625 C13.51359375 1.08765625 13.84359375 2.07765625 14.18359375 3.09765625 C12.99121094 3.06285156 11.79882812 3.02804688 10.5703125 2.9921875 C9.00392033 2.96404872 7.43751294 2.93674865 5.87109375 2.91015625 C5.08541016 2.88501953 4.29972656 2.85988281 3.49023438 2.83398438 C2.73291016 2.82431641 1.97558594 2.81464844 1.1953125 2.8046875 C0.49881592 2.78897705 -0.19768066 2.7732666 -0.9152832 2.75708008 C-3.36130408 3.19527182 -4.24342711 4.23202983 -5.81640625 6.09765625 C-4.74374226 0.12138542 -4.74374226 0.12138542 0 0 Z " fill="#0D2456" transform="translate(156.81640625,137.90234375)"/>
<path d="M0 0 C2.63202477 3.85692861 2.08933594 7.74851239 1.75 12.1875 C1.71003906 12.92419922 1.67007813 13.66089844 1.62890625 14.41992188 C1.50177331 16.28740175 1.25972678 18.1463048 1 20 C0.34 20.33 -0.32 20.66 -1 21 C-1.02888146 17.68751813 -1.04675799 14.37506833 -1.0625 11.0625 C-1.07087891 10.11697266 -1.07925781 9.17144531 -1.08789062 8.19726562 C-1.09111328 7.29814453 -1.09433594 6.39902344 -1.09765625 5.47265625 C-1.10289307 4.64000244 -1.10812988 3.80734863 -1.11352539 2.94946289 C-1 1 -1 1 0 0 Z " fill="#16478C" transform="translate(80,126)"/>
<path d="M0 0 C0.66 0.66 1.32 1.32 2 2 C1.67 2.99 1.34 3.98 1 5 C0.92970879 7.57265818 0.90629168 10.11641431 0.9375 12.6875 C0.94426758 13.7403418 0.94426758 13.7403418 0.95117188 14.81445312 C0.96293073 16.54300538 0.98086546 18.27151365 1 20 C0.34 20.33 -0.32 20.66 -1 21 C-1.02888146 17.68751813 -1.04675799 14.37506833 -1.0625 11.0625 C-1.07087891 10.11697266 -1.07925781 9.17144531 -1.08789062 8.19726562 C-1.09111328 7.29814453 -1.09433594 6.39902344 -1.09765625 5.47265625 C-1.10289307 4.64000244 -1.10812988 3.80734863 -1.11352539 2.94946289 C-1 1 -1 1 0 0 Z " fill="#142F5A" transform="translate(195,126)"/>
<path d="M0 0 C3.89436219 3.25199317 3.89436219 3.25199317 4.36230469 6.56542969 C4.29946289 7.50805664 4.23662109 8.45068359 4.171875 9.421875 C4.11386719 10.44667969 4.05585938 11.47148437 3.99609375 12.52734375 C3.91488281 13.59082031 3.83367187 14.65429688 3.75 15.75 C3.68425781 16.82894531 3.61851562 17.90789062 3.55078125 19.01953125 C3.38588202 21.68147589 3.20164054 24.34062764 3 27 C2.67 27 2.34 27 2 27 C1.97494385 26.39526855 1.9498877 25.79053711 1.92407227 25.16748047 C1.80736994 22.4031438 1.68498266 19.63908634 1.5625 16.875 C1.52318359 15.92367187 1.48386719 14.97234375 1.44335938 13.9921875 C1.22946977 9.25371013 0.93438179 4.66405699 0 0 Z " fill="#1E4789" transform="translate(212,119)"/>
<path d="M0 0 C0.99 0.33 1.98 0.66 3 1 C2.01 1.66 1.02 2.32 0 3 C-0.309375 3.680625 -0.61875 4.36125 -0.9375 5.0625 C-2 7 -2 7 -4.125 7.75 C-5.053125 7.87375 -5.053125 7.87375 -6 8 C-6 7.01 -6 6.02 -6 5 C-5.34 5 -4.68 5 -4 5 C-4 4.34 -4 3.68 -4 3 C-3.34 3 -2.68 3 -2 3 C-2 2.34 -2 1.68 -2 1 C-1.34 0.67 -0.68 0.34 0 0 Z " fill="#D2923D" transform="translate(56,72)"/>
<path d="M0 0 C0.66 0 1.32 0 2 0 C5.07692308 6.4 5.07692308 6.4 4.6875 9.4375 C4.460625 9.953125 4.23375 10.46875 4 11 C2.79371992 8.66785852 1.8345262 6.50357861 1 4 C0.34 3.34 -0.32 2.68 -1 2 C-0.67 1.34 -0.34 0.68 0 0 Z " fill="#16326D" transform="translate(266,131)"/>
<path d="M0 0 C1.09651823 3.41139003 0.94215473 6.20655581 0.5625 9.75 C0.40974609 11.22726563 0.40974609 11.22726563 0.25390625 12.734375 C0.12822266 13.85585937 0.12822266 13.85585937 0 15 C-2.16721782 11.74917327 -2.27221018 10.70767847 -2.25 6.9375 C-2.25515625 6.05964844 -2.2603125 5.18179688 -2.265625 4.27734375 C-2 2 -2 2 0 0 Z " fill="#17376D" transform="translate(293,124)"/>
<path d="M0 0 C0.28875 0.639375 0.5775 1.27875 0.875 1.9375 C1.82823451 4.15206079 1.82823451 4.15206079 4 5 C4.33 4.34 4.66 3.68 5 3 C4.67 4.98 4.34 6.96 4 9 C3.01 8.67 2.02 8.34 1 8 C0.67 5.36 0.34 2.72 0 0 Z " fill="#214287" transform="translate(255,124)"/>
<path d="M0 0 C2.375 -0.1875 2.375 -0.1875 5 0 C5.66 0.99 6.32 1.98 7 3 C5.515 5.475 5.515 5.475 4 8 C2.68 7.67 1.36 7.34 0 7 C0.99 7 1.98 7 3 7 C3.33 5.02 3.66 3.04 4 1 C2.68 0.67 1.36 0.34 0 0 Z " fill="#204389" transform="translate(340,115)"/>
<path d="M0 0 C1.4727491 3.82914766 0.50018704 6.28901101 -1 10 C-1.66 10.99 -2.32 11.98 -3 13 C-2.88490339 11.58249437 -2.75746342 10.16598831 -2.625 8.75 C-2.55539062 7.96109375 -2.48578125 7.1721875 -2.4140625 6.359375 C-1.98492887 3.914123 -1.21399362 2.15163097 0 0 Z " fill="#1C3566" transform="translate(285,126)"/>
<path d="M0 0 C6.75 -0.125 6.75 -0.125 9 1 C9 1.66 9 2.32 9 3 C5.625 3.1875 5.625 3.1875 2 3 C1.34 2.01 0.68 1.02 0 0 Z " fill="#E27B27" transform="translate(244,40)"/>
<path d="M0 0 C0 0.66 0 1.32 0 2 C-0.66 2 -1.32 2 -2 2 C-2.33 2.99 -2.66 3.98 -3 5 C-5.0625 5.6875 -5.0625 5.6875 -7 6 C-6.67 5.01 -6.34 4.02 -6 3 C-5.34 3 -4.68 3 -4 3 C-4 2.34 -4 1.68 -4 1 C-2 0 -2 0 0 0 Z " fill="#254A8A" transform="translate(301,117)"/>
<path d="M0 0 C1.17539996 0.92652701 2.34010577 1.86663387 3.5 2.8125 C4.1496875 3.33457031 4.799375 3.85664062 5.46875 4.39453125 C7 6 7 6 7 9 C6.34 8.67 5.68 8.34 5 8 C5 7.34 5 6.68 5 6 C4.360625 5.7525 3.72125 5.505 3.0625 5.25 C1 4 1 4 0.37109375 1.921875 C0.24863281 1.28765625 0.12617188 0.6534375 0 0 Z " fill="#E8642B" transform="translate(309,69)"/>
<path d="M0 0 C0.33 0 0.66 0 1 0 C1 3.96 1 7.92 1 12 C0.67 12 0.34 12 0 12 C0 8.04 0 4.08 0 0 Z " fill="#000000" transform="translate(100,165)"/>
<path d="M0 0 C1.65 0 3.3 0 5 0 C5 0.33 5 0.66 5 1 C3.35 1 1.7 1 0 1 C0 0.67 0 0.34 0 0 Z " fill="#000000" transform="translate(330,114)"/>
<path d="M0 0 C1.65 0 3.3 0 5 0 C5 0.33 5 0.66 5 1 C3.35 1 1.7 1 0 1 C0 0.67 0 0.34 0 0 Z " fill="#000000" transform="translate(283,114)"/>
<path d="M0 0 C1.65 0 3.3 0 5 0 C5 0.33 5 0.66 5 1 C3.35 1 1.7 1 0 1 C0 0.67 0 0.34 0 0 Z " fill="#000000" transform="translate(245,114)"/>
<path d="M0 0 C1.65 0 3.3 0 5 0 C5 0.33 5 0.66 5 1 C3.35 1 1.7 1 0 1 C0 0.67 0 0.34 0 0 Z " fill="#000000" transform="translate(188,114)"/>
<path d="M0 0 C1.65 0 3.3 0 5 0 C5 0.33 5 0.66 5 1 C3.35 1 1.7 1 0 1 C0 0.67 0 0.34 0 0 Z " fill="#000000" transform="translate(74,114)"/>
<path d="M0 0 C2 1 2 1 2 1 Z " fill="#000000" transform="translate(262,177)"/>
<path d="" fill="#000000" transform="translate(0,0)"/>
<path d="M0 0 C2 1 2 1 2 1 Z " fill="#000000" transform="translate(265,114)"/>
<path d="" fill="#000000" transform="translate(0,0)"/>
<path d="" fill="#000000" transform="translate(0,0)"/>
<path d="" fill="#000000" transform="translate(0,0)"/>
<path d="" fill="#000000" transform="translate(0,0)"/>
<path d="" fill="#000000" transform="translate(0,0)"/>
<path d="" fill="#000000" transform="translate(0,0)"/>
<path d="" fill="#000000" transform="translate(0,0)"/>
<path d="" fill="#000000" transform="translate(0,0)"/>
<path d="" fill="#0000FF" transform="translate(0,0)"/>
<path d="" fill="#000000" transform="translate(0,0)"/>
<path d="" fill="#000000" transform="translate(0,0)"/>
<path d="" fill="#000000" transform="translate(0,0)"/>
<path d="" fill="#000000" transform="translate(0,0)"/>
<path d="" fill="#FF0000" transform="translate(0,0)"/>
<path d="" fill="#FF0000" transform="translate(0,0)"/>
<path d="" fill="#FF0000" transform="translate(0,0)"/>
<path d="" fill="#FF0000" transform="translate(0,0)"/>
<path d="" fill="#FF0000" transform="translate(0,0)"/>
<path d="" fill="#FF0000" transform="translate(0,0)"/>
</svg>
